<?xml version="1.0" encoding="UTF-8" standalone="no"?>
<!-- Created with Inkscape (http://www.inkscape.org/) -->

<svg
   width="800"
   height="800"
   viewBox="0 0 211.66668 211.66666"
   version="1.1"
   id="svg5"
   xmlns="http://www.w3.org/2000/svg"
   xmlns:svg="http://www.w3.org/2000/svg">
  <defs
     id="defs2" />
  <g
     id="layer6"
     style="display:none"
     transform="translate(14.552083)">
    <rect
       style="fill:#6d6d6d;fill-opacity:1;stroke-width:0.263047"
       id="rect24105"
       width="203.1783"
       height="233.86084"
       x="-10.476965"
       y="-9.728611" />
  </g>
  <g
     id="layer5"
     transform="translate(14.552083)"
     style="display:none">
    <path
       id="path22267-3"
       style="display:inline;fill:#ffffff;fill-opacity:1;stroke:none;stroke-width:0.365169;stroke-linecap:butt;stroke-linejoin:miter;stroke-miterlimit:4;stroke-dasharray:none;stroke-opacity:1"
       d="M 6.597324,1.95115 C 3.831865,5.591611 2.764453,10.172219 1.963252,14.586775 0.530582,23.619198 0.673749,32.850718 1.757958,41.912811 2.119363,44.720421 2.5795,47.517295 3.210963,50.277437 2.140642,49.339397 1.070321,48.401358 0,47.463319 c 0.464312,3.335126 0.674808,6.711069 1.350701,10.013015 1.465961,6.355239 3.813441,12.47423 6.406302,18.446464 1.623538,3.630164 3.347827,7.234874 5.521357,10.573444 -3.857843,7.02477 -5.084285,15.215478 -4.821141,23.146288 0.363558,9.10673 2.712414,18.23135 7.444342,26.06814 0.8417,1.48768 1.683402,2.97538 2.525103,4.46307 0.684405,-2.11588 1.368045,-4.232 2.052943,-6.34771 2.288402,6.36603 6.874417,11.48309 11.158306,16.57777 0.30506,0.38082 0.813837,1.01253 1.190507,1.48864 4.669964,5.89608 9.807265,11.45174 13.916908,17.77372 1.476753,2.3496 2.306398,5.02486 3.45865,7.53558 0.557239,1.31272 1.114478,2.62542 1.671715,3.93813 0.559105,-4.1661 1.177919,-8.32455 1.694178,-12.49612 0.950489,1.18981 1.902395,2.37834 2.856182,3.56548 0.02858,6.33158 2.583802,12.40415 6.248652,17.47885 4.657446,6.54086 10.930736,11.64001 16.859258,16.96361 1.569471,1.43657 3.140372,2.87158 4.710473,4.30746 0.128226,-1.18517 0.256452,-2.37035 0.384678,-3.55551 1.983631,1.73898 4.093219,3.46263 6.651138,4.26303 2.561131,-0.8009 4.672211,-2.5272 6.659113,-4.26702 0.131546,1.18317 0.263095,2.36636 0.394643,3.54954 3.633052,-3.37364 7.337032,-6.66793 11.050842,-9.9516 5.80414,-5.24635 11.40657,-11.08823 14.52126,-18.38091 1.39043,-3.28566 2.19801,-6.83211 2.22834,-10.40546 0.95411,-1.18688 1.90588,-2.37553 2.85619,-3.56548 0.52033,4.15761 1.11793,8.30776 1.67025,12.46224 1.49484,-3.39913 2.86317,-6.85756 4.44018,-10.21822 2.51371,-4.35077 5.80771,-8.18134 8.953,-12.07897 2.66092,-3.16516 5.24154,-6.39574 7.86189,-9.59359 3.98634,-4.68253 8.05366,-9.52859 10.16494,-15.39317 0.68285,2.12083 1.36312,4.24249 2.04497,6.36365 2.32538,-4.19937 4.95181,-8.27361 6.54069,-12.83228 3.20623,-8.84671 4.2583,-18.50054 2.88138,-27.816998 -0.70406,-4.53638 -2.02839,-9.018 -4.2658,-13.04415 3.19959,-4.99221 5.57103,-10.462022 7.75945,-15.956925 1.89182,-4.972183 3.7237,-10.023212 4.57815,-15.293332 0.3142,-2.593564 0.62851,-5.187116 0.94276,-7.780676 -1.07165,0.938703 -2.1433,1.877407 -3.21495,2.816111 1.93899,-8.726914 2.55485,-17.724796 2.17923,-26.646911 -0.32307,-5.822734 -0.98085,-11.730677 -3.08437,-17.210235 -0.81609,-2.229264 -2.17295,-4.191674 -3.66319,-6.019066 -0.3362,-0.812619 -1.00528,0.17995 -1.52255,0.349313 -9.01324,5.415847 -17.5257,11.721688 -24.98943,19.147359 -0.72001,0.566342 -1.17623,1.57101 -2.16706,1.659105 -6.3964,1.623781 -12.7296,3.878376 -18.21774,7.616547 -8.25314,-2.631521 -16.6057,-5.318601 -25.3035,-5.913912 -3.255056,-0.26039 -6.524962,-0.253778 -9.785887,-0.118901 -0.503854,0.380534 -1.014678,0.752099 -1.512801,1.139996 -0.57423,-0.362649 -1.065944,-0.98554 -1.714795,-1.146684 -7.036513,-0.345455 -14.123952,0.261174 -20.967807,1.953889 -4.70311,1.137231 -9.30806,2.631 -13.919589,4.085612 C 48.991989,25.297044 42.401024,23.032047 35.769055,21.378922 28.05774,13.455043 19.194905,6.711423 9.730748,1.017694 9.180574,0.678464 8.6304,0.339232 8.080227,9.9999997e-7 7.585926,0.650384 7.091625,1.300767 6.597324,1.95115 Z m 8.865528,18.923544 c 4.429117,2.956011 8.836013,6.058043 12.489072,9.963011 0.699816,0.701707 1.204476,1.623037 1.88792,2.298239 4.663115,1.283876 9.040876,3.412836 13.329771,5.612828 2.687414,1.497728 5.489169,2.9331 7.721238,5.086973 0.433203,0.463856 0.866513,0.927611 1.299758,1.391427 8.522194,-2.671615 17.112619,-5.160494 25.831214,-7.111027 3.061583,-0.6004 6.340466,-1.483999 9.376369,-0.285789 1.516901,0.57621 2.626693,1.807416 3.878072,2.787005 1.568073,-1.291915 3.099443,-2.855714 5.204775,-3.173807 2.989167,-0.62207 5.988669,0.297932 8.910139,0.862831 8.42696,1.928215 16.73933,4.333227 24.98469,6.92278 1.26645,-1.497767 2.74749,-2.79672 4.42504,-3.816967 4.79439,-3.00482 9.92762,-5.46786 15.22446,-7.450161 0.92505,-0.376527 1.97227,-0.531345 2.85449,-0.93801 2.73224,-3.859741 6.58248,-6.722302 10.34965,-9.49838 1.63398,-1.173759 3.30466,-2.295717 5.00025,-3.378399 1.09865,13.105414 -0.98082,26.334885 -5.01476,38.803729 -0.17259,0.519887 -0.44762,1.364225 -0.67155,2.010171 -1.28217,3.780359 -2.84197,7.456368 -4.33126,11.157586 -0.81798,-0.776171 -1.67643,-1.508513 -2.5572,-2.212231 6.33687,-8.702932 10.17267,-19.454526 9.69711,-30.289577 -0.13511,-3.577958 -0.92787,-7.081283 -1.47338,-10.608795 -2.20336,2.302353 -4.39727,4.613777 -6.60729,6.909733 -1.10001,1.132403 -2.37946,2.408832 -3.6175,3.526289 -3.24689,2.979744 -6.87915,5.572005 -10.88067,7.439203 -1.23358,-2.160405 -2.74133,-4.203914 -4.11386,-6.297883 -1.73786,3.550754 -3.48201,7.099675 -5.45923,10.525038 -1.67716,2.959972 -2.75409,6.30171 -2.71622,9.727402 -0.0504,3.387182 0.68576,6.711916 1.29111,10.02523 -4.21855,-0.702284 -8.53936,0.76485 -11.88585,3.320012 -4.82829,3.568302 -8.09968,8.699107 -12.13634,13.050917 -0.94122,0.8864 -1.89572,2.03387 -3.24642,2.21911 -0.46152,0.038 -1.10696,0.0847 -1.05821,-0.57171 -0.33765,-2.18494 -0.0249,-4.40732 -0.0533,-6.60788 0.0497,-2.22503 0.0994,-4.450052 0.14914,-6.675078 -2.02585,3.496368 -4.168479,6.927788 -6.117841,10.466778 -1.730434,3.37197 -2.540713,7.52012 -1.015637,11.11543 1.258736,2.09722 3.570218,3.200808 5.613638,4.386648 1.77423,0.95574 3.58437,1.84194 5.4025,2.71043 -0.9607,0.0824 -1.9214,0.16475 -2.8821,0.24712 2.07058,2.77867 4.50462,5.3613 5.83602,8.6108 2.16001,4.99354 3.00215,10.53885 2.57707,15.95494 -0.56177,-0.3507 -1.13616,-0.24024 -1.71433,9.5e-4 -1.86069,0.54636 -3.72207,1.09185 -5.56266,1.70306 1.70172,-1.92482 3.4341,-4.03723 4.00822,-6.60082 0.39735,-2.83509 -1.28808,-5.39565 -2.97109,-7.51251 -3.57585,-4.39753 -7.323802,-8.65243 -10.974974,-12.98749 0.612955,3.82074 1.269869,7.635 1.855623,11.45975 -2.281147,-0.17445 -4.572308,-0.0707 -6.852447,-0.0558 -1.927133,-0.0856 -3.858891,-0.0591 -5.784119,0.0558 0.592132,-3.83131 1.254625,-7.65229 1.873561,-11.47968 -3.734579,4.44728 -7.594178,8.79159 -11.232699,13.31813 -1.61425,2.06242 -3.17203,4.60585 -2.703401,7.33533 0.615377,2.50406 2.303686,4.57548 3.980319,6.46729 -2.149235,-0.71597 -4.328587,-1.33551 -6.499659,-1.98104 -0.764314,0.51835 -0.912584,0.055 -0.845671,-0.69266 -0.25188,-5.88355 0.851386,-11.93036 3.715702,-17.11568 1.345047,-2.33177 3.186834,-4.32122 4.779675,-6.48037 -0.965348,-0.0823 -1.930697,-0.16475 -2.896046,-0.24712 3.282556,-1.62977 6.701353,-3.1104 9.589041,-5.405018 1.318711,-1.00241 1.945573,-2.60659 2.117831,-4.21021 0.574881,-3.95986 -1.045708,-7.83827 -3.130972,-11.11795 -1.563751,-2.6487 -3.127501,-5.297407 -4.691252,-7.946108 0.06333,4.051158 0.234767,8.103128 0.232727,12.153738 -0.03563,0.55553 -0.07817,1.13093 -0.30448,1.6458 -1.615605,0.41785 -2.874908,-0.94686 -3.929759,-1.94868 -3.906716,-4.12723 -7.01858,-9.017091 -11.488767,-12.601139 -3.319299,-2.769055 -7.653646,-4.587184 -12.0331,-4.073336 -0.923812,0.364201 -0.640281,-0.383349 -0.503641,-1.015531 0.929611,-4.725237 1.772396,-9.734562 0.240524,-14.431666 -1.284656,-3.853012 -3.73928,-7.159077 -5.399401,-10.843395 -0.640478,-1.297618 -1.280958,-2.595236 -1.921436,-3.892853 -1.37873,2.094465 -2.87911,4.112146 -4.123826,6.291904 C 34.221708,44.312624 29.48409,40.288729 25.267151,35.897935 24.413449,35.00869 23.385999,33.935634 22.468219,32.972566 c -1.266071,-1.324857 -2.53227,-2.649591 -3.798392,-3.974401 -0.708171,4.421718 -1.666043,8.848723 -1.489665,13.353853 0.221511,9.912626 3.921842,19.578992 9.72735,27.552492 -0.883183,0.703901 -1.740295,1.440582 -2.561195,2.216217 C 22.011012,66.450485 19.728959,60.742683 18.091324,54.824553 16.535489,49.383902 15.394557,43.823593 14.711432,38.20583 14.675802,37.905002 14.569216,36.94827 14.536036,36.629366 13.97296,31.156877 13.861565,25.631086 14.332735,20.147248 c 0.376705,0.242482 0.75341,0.484963 1.130117,0.727446 z m 29.540463,45.312869 c 0.824416,1.703281 1.58907,3.434612 2.383807,5.151908 -1.163334,0.162097 -2.32667,0.324194 -3.490004,0.486291 1.831704,1.294787 3.663408,2.589574 5.495112,3.88436 0.302573,0.791848 0.286116,0.645319 0.599938,0.424509 1.019444,0.734196 1.977551,1.553237 2.852196,2.455377 -2.583361,-0.278943 -5.183731,-0.132183 -7.767302,0.05979 -0.611983,2.124124 -1.202867,4.339154 -0.793274,6.562944 0.216803,1.46895 0.727884,2.87963 1.395205,4.20125 -1.921811,3.66033 -1.916569,7.95515 -1.567198,11.973628 0.54637,5.02633 1.774187,10.07597 4.280801,14.50326 2.595536,4.14617 5.182089,8.44821 6.162416,13.30576 0.937323,4.04263 0.564756,8.2084 0.378172,12.30842 1.469361,-0.49712 2.897647,-1.17832 4.392901,-1.56052 1.073151,0.4403 1.50669,1.70269 1.945086,2.69256 1.452129,4.0648 1.579826,8.52831 0.87522,12.75917 -0.06231,0.97299 -0.491971,-0.45503 -0.745437,-0.73143 -3.064009,-5.42664 -6.511501,-10.66588 -10.684864,-15.31077 -0.821978,-0.96377 -1.643957,-1.92753 -2.465935,-2.89131 -0.219911,1.07755 -0.439821,2.1551 -0.659733,3.23265 -4.200621,-6.68958 -8.968914,-13.12067 -14.876451,-18.40818 -0.819089,-0.7156 -1.664165,-1.40195 -2.543672,-2.04201 -0.463963,-4.69838 -1.160917,-9.38579 -1.143948,-14.11879 -0.03923,-2.13637 -0.07848,-4.27274 -0.117715,-6.409108 -1.536913,1.591558 -3.072264,3.184618 -4.610154,4.775228 -0.377723,-6.581438 2.355831,-12.925958 6.052543,-18.231998 2.646196,-3.71862 5.70924,-7.118714 8.407464,-10.799734 2.135519,-2.872482 4.206124,-5.811511 5.896025,-8.972798 0.116268,0.23318 0.232534,0.466362 0.348801,0.699543 z m 93.048175,-0.428495 c 3.62062,6.569886 8.57971,12.24685 13.17315,18.133484 1.45543,1.94835 2.77788,4.00077 3.87824,6.17116 0.1343,0.25903 0.50087,1.00394 0.69955,1.45591 1.69219,3.73843 2.70773,7.85122 2.46159,11.972928 -1.5379,-1.5906 -3.07324,-3.18368 -4.61016,-4.775218 -0.11269,5.347448 -0.0551,10.714418 -0.77831,16.026388 -0.17073,1.49946 -0.35648,2.9976 -0.48335,4.50151 -4.94254,3.6782 -8.95901,8.43997 -12.62227,13.35379 -1.69815,2.30427 -3.30214,4.67795 -4.80782,7.11234 -0.22589,-1.07489 -0.45178,-2.14979 -0.67767,-3.22468 -3.00352,3.539 -6.12792,6.99754 -8.65792,10.90453 -1.8349,2.73397 -3.52619,5.56234 -5.11873,8.44353 -0.81765,-4.25047 -0.69454,-8.74477 0.65575,-12.87479 0.45911,-1.09144 0.88687,-2.41276 1.99514,-3.00345 1.01748,0.11514 1.95733,0.6856 2.94307,0.97995 0.45831,0.0242 1.53505,0.89659 1.51366,0.2628 -0.19386,-4.01141 -0.51989,-8.0876 0.39874,-12.04082 0.99362,-4.88787 3.61681,-9.20494 6.22324,-13.38065 2.5127,-4.51568 3.74004,-9.65045 4.24678,-14.7626 0.32324,-3.909638 0.23329,-8.075828 -1.5907,-11.625098 1.50991,-2.84516 1.98855,-6.27999 0.95127,-9.36541 -0.2613,-0.50852 -0.0663,-1.574942 -0.88047,-1.407452 -2.41017,-0.189753 -4.83662,-0.278164 -7.24614,-0.0292 0.921,-0.94689 1.93151,-1.804317 3.00966,-2.566986 0.10534,1.057637 0.28937,-0.575761 0.86169,-0.606619 1.69728,-1.194887 3.39456,-2.389774 5.09185,-3.584661 -1.16865,-0.163427 -2.3373,-0.326852 -3.50595,-0.490278 0.90832,-1.951579 1.76201,-3.929498 2.7326,-5.851451 0.0478,0.09035 0.0957,0.180698 0.14351,0.271047 z m 21.70938,6.89379 c -0.21816,0.780945 -0.5534,0.570062 -0.95272,0.04584 0.18145,0.04015 1.30969,-0.464551 0.95272,-0.04584 z m -136.010505,0.04783 c -0.397086,0.514458 -0.733146,0.741017 -0.948738,-0.04783 -0.419067,-0.431551 0.846765,0.108041 0.948738,0.04783 z M 124.58179,101.68689 c -0.0942,0.68252 -1.23617,0.60535 -0.47866,0.14469 0.25411,-0.11502 1.21225,-0.90922 0.47866,-0.14469 z m -66.818334,-0.30492 c 0.263083,0.30632 1.463633,0.57836 0.705575,0.92275 -0.177716,-0.25124 -0.726159,-0.86815 -0.705575,-0.92275 z m 54.333244,73.19494 c -1.0794,3.77868 -3.59726,6.91162 -6.13491,9.8255 -1.03618,-1.49414 -2.09164,-2.97521 -3.13522,-4.46432 3.75775,-0.18559 7.18043,-2.48182 9.30601,-5.50666 l -0.0244,0.0991 z m -41.612966,-0.0658 c 2.12974,2.98444 5.528286,5.24498 9.254192,5.42694 -1.046918,1.4843 -2.100844,2.9865 -3.143196,4.46033 -2.562648,-2.95035 -5.123926,-6.12367 -6.164811,-9.965 z m 21.185183,3.59935 c 2.024535,0.29213 3.91767,1.18572 5.95674,1.43879 1.40035,0.23235 2.819573,0.34525 4.238223,0.37684 -1.06373,2.83681 -1.70378,5.94038 -3.698701,8.31859 -1.871423,2.38439 -4.33862,4.21672 -6.882932,5.82574 -3.772434,-2.37487 -7.551984,-5.39928 -9.062996,-9.75357 -0.500734,-1.46387 -1.003255,-2.92713 -1.504682,-4.39076 2.993644,-0.0205 5.952754,-0.59822 8.7886,-1.53723 0.699838,-0.21877 1.431855,-0.3337 2.165748,-0.2784 z" />
  </g>
  <g
     id="layer3"
     style="display:inline"
     transform="translate(87.022786,-21.130861)" />
  <g
     id="layer2"
     style="display:inline"
     transform="translate(87.022786,-21.130861)" />
  <g
     id="layer4"
     style="display:inline"
     transform="translate(87.022786,-21.130861)">
    <g
       transform="matrix(-1.0204924,0,0,1.0204165,129.18078,-0.45841645)"
       id="mirror-path-effect22253"
       style="display:inline">
      <g
         id="g22456"
         transform="matrix(1.0003061,0,0,1,-0.03309942,0)">
        <path
           id="path22255"
           d="m 186.96962,31.180166 -12.29201,9.709586 -7.57925,6.086075 -16.44264,8.112462 -7.4335,2.321856 -35.06783,-3.429142 V 218.98285 l 15.98698,-9.68087 9.84888,-13.41053 9.23119,-17.61797 24.30642,-24.06291 14.43672,-21.29779 -3.85903,-24.92832 5.5734,-12.608403 3.00534,-13.037591 2.99841,-13.044617 V 50.528982 Z m -157.631454,0 12.29201,9.709586 7.57925,6.086075 16.44264,8.112462 7.4335,2.321856 35.067834,-3.429142 V 218.98285 l -15.986984,-9.68087 -9.84888,-13.41053 -9.23119,-17.61797 -24.30642,-24.06291 -14.43672,-21.29779 3.85903,-24.92832 -5.5734,-12.608403 -3.00534,-13.037591 -2.99841,-13.044617 V 50.528982 Z"
           style="fill:#f65c02;fill-opacity:1;stroke:none;stroke-width:3.57794px;stroke-linecap:butt;stroke-linejoin:miter;stroke-opacity:1" />
        <path
           id="path22257"
           d="m 102.69238,30.602579 c -2.870327,3.12098 -7.476297,7.868262 -9.413897,9.983534 -1.86368,1.591014 -3.70836,3.135457 -4.8872,4.355226 -1.3283,1.374425 -0.3743,3.96412 -1.12251,4.562712 -0.44892,0.598238 8.52966,-3.89067 8.52966,-3.89067 0,0 1.58611,-2.426774 1.96022,-3.848344 0.37412,-1.421625 1.35985,-3.866025 2.428467,-3.627768 2.52929,0.577796 -1.880517,19.714448 -1.880517,19.714448 l 4.601107,-6.02634 1.34774,-8.006562 1.12254,-9.205365 z m -81.622293,0 c 2.870327,3.12098 7.476297,7.868262 9.413897,9.983534 1.86368,1.591014 3.70836,3.135457 4.8872,4.355226 1.3283,1.374425 0.3743,3.96412 1.12251,4.562712 0.44892,0.598238 -8.52966,-3.89067 -8.52966,-3.89067 0,0 -1.58611,-2.426774 -1.96022,-3.848344 -0.37412,-1.421625 -1.35985,-3.866025 -2.428467,-3.627768 -2.52929,0.577796 1.880517,19.714448 1.880517,19.714448 l -4.601107,-6.02634 -1.34774,-8.006562 -1.12254,-9.205365 z"
           style="fill:#ffffff;fill-opacity:1;stroke:none;stroke-width:1.85996px;stroke-linecap:butt;stroke-linejoin:miter;stroke-opacity:1"
           transform="matrix(1.9266936,0,0,1.9368132,-11.072283,-23.110509)" />
        <path
           id="path22259"
           d="m 86.073603,53.096829 c -0.44893,2.992922 0.57786,9.862253 2.37359,14.9502 0.67338,-0.823052 1.02161,-0.923787 1.47055,-1.896492 1.49643,3.142519 2.17707,9.147287 1.0039,14.025193 -0.91733,3.81414 -5.38396,9.516579 -6.88041,11.461914 -0.37411,-1.197165 -0.17325,-1.573427 -0.32293,-2.920208 -3.06771,4.040379 -7.25103,10.692674 -6.99902,16.229484 2.03352,0.90249 4.04325,-1.87087 4.04325,-1.87087 l 11.59571,-11.523041 4.86423,-7.628749 2.69187,-6.960334 -1.19517,-7.032984 c 0,0 -2.54445,-5.984001 -2.99339,-6.58252 -0.44892,-0.598944 -6.73509,-9.056418 -6.73509,-9.056418 z m -48.384739,0 c 0.44893,2.992922 -0.57786,9.862253 -2.37359,14.9502 -0.67338,-0.823052 -1.02161,-0.923787 -1.47055,-1.896492 -1.49643,3.142519 -2.17707,9.147287 -1.0039,14.025193 0.91733,3.81414 5.38396,9.516579 6.88041,11.461914 0.37411,-1.197165 0.17325,-1.573427 0.32293,-2.920208 3.06771,4.040379 7.25103,10.692674 6.99902,16.229484 -2.03352,0.90249 -4.04325,-1.87087 -4.04325,-1.87087 l -11.59571,-11.523041 -4.86423,-7.628749 -2.69187,-6.960334 1.19517,-7.032984 c 0,0 2.54445,-5.984001 2.99339,-6.58252 0.44892,-0.598944 6.73509,-9.056418 6.73509,-9.056418 z"
           style="fill:#ffffff;fill-opacity:1;stroke:none;stroke-width:1.85996px;stroke-linecap:butt;stroke-linejoin:miter;stroke-opacity:1"
           transform="matrix(1.9266936,0,0,1.9368132,-11.072283,-23.110509)" />
        <path
           id="path22261"
           d="m 143.07646,92.519463 c -5.97173,0.163912 -10.69001,3.344287 -12.86118,5.178449 -2.57321,2.173688 -4.89419,6.579748 -7.4416,6.948238 -2.89445,0.4187 -3.37373,-1.26002 -3.44603,-2.64655 -1.30248,0.84768 -7.83942,11.34505 3.45409,21.3443 0.42884,0.72434 2.00163,6.08954 1.4298,10.58205 -1.57252,-1.01432 -2.14626,-1.15593 -3.28989,-1.30165 1.57249,1.88398 0.5703,7.24587 -0.43034,8.2602 -1.00062,1.01436 -6.42711,3.91199 -6.42711,3.91199 l -2.29043,5.0729 -0.28466,4.48895 7.14895,1.44939 11.14684,-0.57693 7.86384,-4.20749 1.86013,-17.09736 5.00425,-5.64986 c 0,0 5.86226,-7.97387 6.43405,-12.75613 0.57176,-4.78215 1.14359,-9.13155 -0.71491,-11.59523 -1.85839,-2.46357 -5.43455,-1.44942 -5.43455,-1.44942 l -7.57932,1.02023 1.86013,-4.207493 3.00533,-3.62351 4.42821,-2.898815 c -1.18387,-0.203896 -2.32981,-0.276666 -3.43569,-0.246405 z m -69.845134,0 c 5.97173,0.163912 10.69001,3.344287 12.86118,5.178449 2.57321,2.173688 4.89419,6.579748 7.4416,6.948238 2.89445,0.4187 3.37373,-1.26002 3.44603,-2.64655 1.30248,0.84768 7.839424,11.34505 -3.45409,21.3443 -0.42884,0.72434 -2.00163,6.08954 -1.4298,10.58205 1.57252,-1.01432 2.14626,-1.15593 3.28989,-1.30165 -1.57249,1.88398 -0.5703,7.24587 0.43034,8.2602 1.00062,1.01436 6.427114,3.91199 6.427114,3.91199 l 2.29043,5.0729 0.28466,4.48895 -7.148954,1.44939 -11.14684,-0.57693 -7.86384,-4.20749 -1.86013,-17.09736 -5.00425,-5.64986 c 0,0 -5.86226,-7.97387 -6.43405,-12.75613 -0.57176,-4.78215 -1.14359,-9.13155 0.71491,-11.59523 1.85839,-2.46357 5.43455,-1.44942 5.43455,-1.44942 l 7.57932,1.02023 -1.86013,-4.207493 -3.00533,-3.62351 -4.42821,-2.898815 c 1.18387,-0.203896 2.32981,-0.276666 3.43569,-0.246405 z"
           style="fill:#ffffff;fill-opacity:1;stroke:none;stroke-width:3.57794px;stroke-linecap:butt;stroke-linejoin:miter;stroke-opacity:1" />
        <path
           id="path22263"
           d="m 122.39452,197.87593 c -1.0143,0.31537 -0.99384,0.82556 -5.04729,0.93451 -4.05333,0.11272 -5.42503,-1.23087 -9.19284,-1.23087 v 20.03889 l 4.36973,-0.73174 8.50002,-1.22858 2.38762,-7.93652 c 2.38763,-7.93681 0.77854,-10.40381 -1.01646,-9.84569 z m -28.481254,0 c 1.0143,0.31537 0.99384,0.82556 5.04729,0.93451 4.053334,0.11272 5.425034,-1.23087 9.192844,-1.23087 v 20.03889 l -4.36973,-0.73174 -8.500024,-1.22858 -2.38762,-7.93652 c -2.38763,-7.93681 -0.77854,-10.40381 1.01646,-9.84569 z"
           style="fill:#f9fafc;fill-opacity:1;stroke:none;stroke-width:3.57794px;stroke-linecap:butt;stroke-linejoin:miter;stroke-opacity:1" />
        <path
           id="path22265"
           d="m 139.91842,103.4463 c -0.57698,0.0396 -0.83583,0.51244 -0.27079,1.85747 1.6441,3.91278 -0.59163,8.02061 -2.26206,7.77324 -1.57203,-0.23281 -1.14818,-0.43803 -1.14818,-0.43803 l 0.62699,-2.69853 c -1.50101,1.66651 -4.65817,2.45659 -6.14946,0.58399 l -3.64389,2.02635 2.07526,3.1169 5.35824,2.53296 6.07317,-2.02635 3.85902,-3.69387 -1.13828,-7.61288 c 0,0 -2.27867,-1.49719 -3.38011,-1.42125 z m -63.529054,0 c 0.57698,0.0396 0.83583,0.51244 0.27079,1.85747 -1.6441,3.91278 0.59163,8.02061 2.26206,7.77324 1.57203,-0.23281 1.14818,-0.43803 1.14818,-0.43803 l -0.62699,-2.69853 c 1.50101,1.66651 4.65817,2.45659 6.14946,0.58399 l 3.64389,2.02635 -2.07526,3.1169 -5.35824,2.53296 -6.07317,-2.02635 -3.85902,-3.69387 1.13828,-7.61288 c 0,0 2.27867,-1.49719 3.38011,-1.42125 z"
           style="fill:#f65c02;fill-opacity:1;stroke:none;stroke-width:3.57794px;stroke-linecap:butt;stroke-linejoin:miter;stroke-opacity:1" />
        <path
           id="path22267"
           d="m 163.90621,44.486391 c -6.29012,1.594061 -13.02412,3.539169 -19.45715,8.176502 -12.33174,-3.891177 -20.4111,-6.735682 -33.89395,-6.209392 -0.6532,0.488798 -1.82807,1.345654 -2.40072,2.074145 v 8.98856 c 2.14435,-1.883947 4.52189,-2.480937 7.19175,-2.53031 5.21861,-0.09651 26.30256,6.16721 30.30532,7.471423 3.28798,-3.767896 16.62552,-9.991446 21.2001,-11.150807 4.17943,-5.875691 16.12824,-13.334457 18.84441,-14.783666 2.03142,14.209422 0.29431,32.487636 -7.94756,52.414614 1.57253,-0.289993 2.07158,-0.828315 2.7862,-1.263339 -2.14423,4.637405 -4.06265,7.930913 -5.20621,9.959749 -2.08263,-2.85722 -4.8382,-5.413827 -7.91092,-7.451808 3.57392,-4.057637 13.12181,-17.990657 10.11972,-34.946039 -4.86051,5.072144 -10.43592,11.343143 -19.95389,15.202361 -1.00076,-1.377533 -1.63454,-2.777561 -2.66681,-4.248138 -3.9394,8.285809 -7.22058,9.734599 -4.99504,21.215044 1.57252,-3.478046 3.16789,-6.662796 4.45452,-7.67716 1.57252,6.376357 10.33098,16.604071 13.72181,20.88825 3.41836,4.31896 11.5746,15.81782 6.99998,28.57053 -0.54979,-0.94752 -1.88382,-3.44566 -3.3153,-4.85785 -0.081,6.96685 -0.89137,10.2603 -1.23005,15.15371 -5.59882,3.62868 -13.5421,12.73102 -20.39342,25.15276 -1.00074,-1.88394 -1.35645,-3.90264 -1.35645,-3.90264 -5.45018,6.16891 -10.53227,15.73532 -12.29899,19.41918 -5.34945,-7.32989 -2.81499,-27.19532 4.43514,-24.19657 -0.59135,-10.20188 3.0018,-16.23566 6.71863,-22.17728 3.71691,-5.94162 5.7052,-18.38514 2.95043,-23.51238 -2.06429,6.26852 -5.09719,8.73654 -8.39734,12.99591 0.38182,1.36137 0.39569,2.19662 0.9285,3.29056 -3.0619,-1.86199 -5.12868,-3.52116 -7.77362,-5.67097 6.5734,-3.7919 18.42475,-11.80085 15.98135,-20.12771 -3.71683,-0.29 -7.97781,0.13325 -11.12282,1.29249 0,0 1.16249,-4.536757 7.36692,-8.803312 -12.931,-2.12247 -19.39781,17.787412 -26.2109,18.217392 -3.01686,0.19039 -4.31678,-1.06727 -4.08264,-6.15088 -1.89001,3.13614 -2.87282,6.51392 -1.85504,9.65217 0.67719,2.08807 9.31598,5.75301 16.77202,9.40265 -1.85841,1.15864 -3.69908,1.26898 -6.00371,1.44939 5.24029,6.47888 7.02046,17.68215 5.30498,25.50757 -1.44986,-0.52805 -1.53366,-0.66493 -2.96237,-1.14694 -3.32807,0.96326 -6.77233,2.04041 -8.46206,2.73707 -5.38651,2.22085 -11.27589,-1.14322 -3.39384,-5.94063 0.32449,1.05267 0.35738,1.71454 0.55209,3.22774 2.73384,-1.67714 6.4315,-6.32026 6.35924,-8.15591 -0.0959,-2.43792 -1.88992,-4.37096 -6.94167,-10.31956 0.3564,2.10051 0.5069,3.00026 0.32333,5.14021 -5.31053,-0.53824 -8.83579,-0.22625 -8.83579,-0.22625 v 56.40498 c 3.0598,8e-5 4.24092,1.745 11.02949,1.81371 3.13446,0.0318 9.75502,-3.18915 9.80592,-13.45273 7.3967,11.14122 -2.84597,20.14297 -7.54216,25.70071 0.2356,-1.51239 0.12916,-2.06969 -1.80938,-4.76177 -1.75503,5.40065 -6.22819,8.99019 -11.48387,12.10803 v 11.30285 c 1.76897,-0.58137 5.40661,-3.62162 8.26572,-6.80983 0,0 0.55255,1.7368 0.69548,3.47578 7.71969,-7.24573 22.96101,-17.91629 22.53214,-33.42232 2.49198,-3.07378 4.35127,-5.517 6.86438,-8.40792 1.08353,2.93936 1.12732,5.32352 1.55617,8.22183 2.00142,-5.07199 11.70626,-15.83329 15.58197,-20.83024 3.99612,-5.15222 12.37048,-13.02245 12.51337,-22.58682 2.71618,1.88381 3.16555,3.97791 4.02326,6.58637 7.71959,-13.0426 9.09035,-33.86996 1.22777,-46.18779 4.71755,-6.086474 11.98833,-24.326861 12.70301,-31.572694 -1.55623,1.39901 -2.75899,2.265699 -4.35255,2.639336 5.66542,-14.556755 5.95035,-43.834892 -0.76083,-52.189032 -8.75773,5.337466 -16.92284,11.377525 -25.09807,19.817107 z m -21.42605,62.271369 c 0.93051,2.50945 -2.20096,8.35769 -4.84877,9.04608 -5.98845,1.55691 -5.11389,-2.27654 -8.95914,-2.60081 2.05562,-2.09245 4.63502,-3.87712 6.42965,-4.90331 0.3479,1.78388 -0.072,2.21387 -0.22988,3.24729 -0.0376,0.24641 1.44267,1.95482 1.67829,1.69622 1.32455,-1.45426 1.53643,-3.29528 2.0436,-6.35054 1.58644,-0.9044 2.74061,-0.59322 3.88625,-0.13493 z M 52.401576,44.486391 c 6.29012,1.594061 13.02412,3.539169 19.45715,8.176502 12.33174,-3.891177 20.4111,-6.735682 33.893954,-6.209392 0.6532,0.488798 1.82807,1.345654 2.40072,2.074145 v 8.98856 c -2.14435,-1.883947 -4.52189,-2.480937 -7.19175,-2.53031 -5.218614,-0.09651 -26.302564,6.16721 -30.305324,7.471423 -3.28798,-3.767896 -16.62552,-9.991446 -21.2001,-11.150807 -4.17943,-5.875691 -16.12824,-13.334457 -18.84441,-14.783666 -2.03142,14.209422 -0.29431,32.487636 7.94756,52.414614 -1.57253,-0.289993 -2.07158,-0.828315 -2.7862,-1.263339 2.14423,4.637405 4.06265,7.930913 5.20621,9.959749 2.08263,-2.85722 4.8382,-5.413827 7.91092,-7.451808 -3.57392,-4.057637 -13.12181,-17.990657 -10.11972,-34.946039 4.86051,5.072144 10.43592,11.343143 19.95389,15.202361 1.00076,-1.377533 1.63454,-2.777561 2.66681,-4.248138 3.9394,8.285809 7.22058,9.734599 4.99504,21.215044 -1.57252,-3.478046 -3.16789,-6.662796 -4.45452,-7.67716 -1.57252,6.376357 -10.33098,16.604071 -13.72181,20.88825 -3.41836,4.31896 -11.5746,15.81782 -6.99998,28.57053 0.54979,-0.94752 1.88382,-3.44566 3.3153,-4.85785 0.081,6.96685 0.89137,10.2603 1.23005,15.15371 5.59882,3.62868 13.5421,12.73102 20.39342,25.15276 1.00074,-1.88394 1.35645,-3.90264 1.35645,-3.90264 5.45018,6.16891 10.53227,15.73532 12.29899,19.41918 5.34945,-7.32989 2.81499,-27.19532 -4.43514,-24.19657 0.59135,-10.20188 -3.0018,-16.23566 -6.71863,-22.17728 -3.71691,-5.94162 -5.7052,-18.38514 -2.95043,-23.51238 2.06429,6.26852 5.09719,8.73654 8.39734,12.99591 -0.38182,1.36137 -0.39569,2.19662 -0.9285,3.29056 3.0619,-1.86199 5.12868,-3.52116 7.77362,-5.67097 -6.5734,-3.7919 -18.42475,-11.80085 -15.98135,-20.12771 3.71683,-0.29 7.97781,0.13325 11.12282,1.29249 0,0 -1.16249,-4.536757 -7.36692,-8.803312 12.931,-2.12247 19.39781,17.787412 26.2109,18.217392 3.01686,0.19039 4.31678,-1.06727 4.08264,-6.15088 1.890014,3.13614 2.872824,6.51392 1.855044,9.65217 -0.67719,2.08807 -9.315984,5.75301 -16.772024,9.40265 1.85841,1.15864 3.69908,1.26898 6.00371,1.44939 -5.24029,6.47888 -7.02046,17.68215 -5.30498,25.50757 1.44986,-0.52805 1.53366,-0.66493 2.96237,-1.14694 3.32807,0.96326 6.77233,2.04041 8.46206,2.73707 5.386514,2.22085 11.275894,-1.14322 3.39384,-5.94063 -0.32449,1.05267 -0.35738,1.71454 -0.55209,3.22774 -2.73384,-1.67714 -6.4315,-6.32026 -6.35924,-8.15591 0.0959,-2.43792 1.88992,-4.37096 6.94167,-10.31956 -0.3564,2.10051 -0.5069,3.00026 -0.32333,5.14021 5.310534,-0.53824 8.835794,-0.22625 8.835794,-0.22625 v 56.40498 c -3.0598,8e-5 -4.24092,1.745 -11.029494,1.81371 -3.13446,0.0318 -9.75502,-3.18915 -9.80592,-13.45273 -7.3967,11.14122 2.84597,20.14297 7.54216,25.70071 -0.2356,-1.51239 -0.12916,-2.06969 1.80938,-4.76177 1.75503,5.40065 6.228194,8.99019 11.483874,12.10803 v 11.30285 c -1.76897,-0.58137 -5.40661,-3.62162 -8.265724,-6.80983 0,0 -0.55255,1.7368 -0.69548,3.47578 -7.71969,-7.24573 -22.96101,-17.91629 -22.53214,-33.42232 -2.49198,-3.07378 -4.35127,-5.517 -6.86438,-8.40792 -1.08353,2.93936 -1.12732,5.32352 -1.55617,8.22183 -2.00142,-5.07199 -11.70626,-15.83329 -15.58197,-20.83024 -3.99612,-5.15222 -12.37048,-13.02245 -12.51337,-22.58682 -2.71618,1.88381 -3.16555,3.97791 -4.02326,6.58637 -7.71959,-13.0426 -9.09035,-33.86996 -1.22777,-46.18779 -4.71755,-6.086474 -11.98833,-24.326861 -12.70301,-31.572694 1.55623,1.39901 2.75899,2.265699 4.35255,2.639336 -5.66542,-14.556755 -5.95035,-43.834892 0.76083,-52.189032 8.75773,5.337466 16.92284,11.377525 25.09807,19.817107 z m 21.42605,62.271369 c -0.93051,2.50945 2.20096,8.35769 4.84877,9.04608 5.98845,1.55691 5.11389,-2.27654 8.95914,-2.60081 -2.05562,-2.09245 -4.63502,-3.87712 -6.42965,-4.90331 -0.3479,1.78388 0.072,2.21387 0.22988,3.24729 0.0376,0.24641 -1.44267,1.95482 -1.67829,1.69622 -1.32455,-1.45426 -1.53643,-3.29528 -2.0436,-6.35054 -1.58644,-0.9044 -2.74061,-0.59322 -3.88625,-0.13493 z"
           style="fill:#042350;fill-opacity:1;stroke:none;stroke-width:0.357794;stroke-linecap:butt;stroke-linejoin:miter;stroke-miterlimit:4;stroke-dasharray:none;stroke-opacity:1" />
        <path
           id="path22269"
           d="m 125.57969,59.988316 c -0.96191,-0.11311 -2.36088,1.212205 -1.99364,2.405739 0.50476,1.640479 0.71013,2.939265 0.52805,3.526098 -0.36448,1.17312 -5.85033,9.686576 -7.22497,10.741531 -1.08259,-0.783956 -5.29784,-4.394977 -8.73474,-6.137063 v 19.901334 c 5.21831,4.115451 10.68589,8.857553 12.65087,8.905843 1.18788,0.02919 7.7317,-9.743317 12.11716,-15.931088 5.28935,-7.463274 9.53327,-12.235541 10.05125,-13.551729 0.41227,-1.047576 0.4779,-2.586167 -0.0308,-3.112415 -2.37681,-2.458799 -14.07998,-6.362168 -17.36318,-6.74825 z m -34.851594,0 c 0.96191,-0.11311 2.36088,1.212205 1.99364,2.405739 -0.50476,1.640479 -0.71013,2.939265 -0.52805,3.526098 0.36448,1.17312 5.85033,9.686576 7.22497,10.741531 1.082594,-0.783956 5.297844,-4.394977 8.734744,-6.137063 v 19.901334 c -5.21831,4.115451 -10.685894,8.857553 -12.650874,8.905843 -1.18788,0.02919 -7.7317,-9.743317 -12.11716,-15.931088 -5.28935,-7.463274 -9.53327,-12.235541 -10.05125,-13.551729 -0.41227,-1.047576 -0.4779,-2.586167 0.0308,-3.112415 2.37681,-2.458799 14.07998,-6.362168 17.36318,-6.74825 z"
           style="fill:#ffffff;fill-opacity:1;stroke:none;stroke-width:3.57794px;stroke-linecap:butt;stroke-linejoin:miter;stroke-opacity:1" />
        <path
           id="path22271"
           d="m 126.25872,67.516308 c -0.16775,0.590108 -6.31803,9.5096 -8.78882,12.328126 -1.16295,-0.04457 -6.31089,-4.95966 -9.31551,-6.603888 v 14.182301 c 4.84098,3.549576 9.45861,7.550676 12.26319,9.032555 1.28945,-1.166717 5.91101,-8.15993 10.29761,-14.346843 4.41747,-6.230453 9.02304,-11.808624 10.05892,-13.378764 -1.02907,-1.546843 -10.42295,-5.600905 -14.36527,-5.959018 0.19503,1.160809 1.00075,2.489711 -0.14922,4.745531 z m -36.209654,0 c 0.16775,0.590108 6.31803,9.5096 8.78882,12.328126 1.162954,-0.04457 6.310894,-4.95966 9.315514,-6.603888 v 14.182301 c -4.84098,3.549576 -9.458614,7.550676 -12.263194,9.032555 -1.28945,-1.166717 -5.91101,-8.15993 -10.29761,-14.346843 -4.41747,-6.230453 -9.02304,-11.808624 -10.05892,-13.378764 1.02907,-1.546843 10.42295,-5.600905 14.36527,-5.959018 -0.19503,1.160809 -1.00075,2.489711 0.14922,4.745531 z"
           style="fill:#042350;fill-opacity:1;stroke:none;stroke-width:3.57794px;stroke-linecap:butt;stroke-linejoin:miter;stroke-opacity:1" />
        <path
           id="path22273"
           d="m 108.15439,139.98638 c 0,0 2.38662,-0.36423 4.00557,0.0726 -1.36104,2.03268 -4.00557,2.80471 -4.00557,2.80471 m -9.9e-4,-2.87731 c 0,0 -2.38662,-0.36423 -4.00557,0.0726 1.36104,2.03268 4.00557,2.80471 4.00557,2.80471"
           style="fill:#fefefe;fill-opacity:1;stroke:none;stroke-width:3.57794px;stroke-linecap:butt;stroke-linejoin:miter;stroke-opacity:1" />
        <path
           id="path22275"
           d="m 125.48238,156.23293 c -4.8626,1.9881 -7.75711,4.22923 -17.32799,4.29277 v 3.84708 c 2.12477,0 6.3637,-1.29647 6.3637,-1.29647 0,0 1.66855,1.39638 2.41107,1.56859 0.4598,-0.26587 0.79527,-0.14808 1.7947,-1.16108 2.02261,3.42969 1.37923,7.98929 1.03379,10.45784 4.35261,-1.24963 8.80123,-10.12717 5.72473,-17.70873 z m -34.656974,0 c 4.8626,1.9881 7.75711,4.22923 17.327994,4.29277 v 3.84708 c -2.12477,0 -6.3637,-1.29647 -6.3637,-1.29647 0,0 -1.66855,1.39638 -2.411074,1.56859 -0.4598,-0.26587 -0.79527,-0.14808 -1.7947,-1.16108 -2.02261,3.42969 -1.37923,7.98929 -1.03379,10.45784 -4.35261,-1.24963 -8.80123,-10.12717 -5.72473,-17.70873 z"
           style="fill:#fbfcfd;fill-opacity:1;stroke:none;stroke-width:3.57794px;stroke-linecap:butt;stroke-linejoin:miter;stroke-opacity:1" />
        <path
           id="path22277"
           d="m 123.27733,173.87135 c -1.50315,2.05219 -3.62415,5.60599 -4.76226,8.00013 -0.71896,-0.59379 -0.98927,-0.90862 -1.16457,-2.98105 -2.86224,2.14762 -5.60768,4.13769 -9.19611,4.3583 v 6.27713 c 7.98635,-0.62865 9.9273,-1.35556 10.74072,-3.36411 1.27203,1.2028 4.155,0.82402 4.9281,-0.4781 1.89504,-3.19185 1.25982,-8.03011 -0.54588,-11.81232 z m -30.246874,0 c 1.50315,2.05219 3.62415,5.60599 4.76226,8.00013 0.71896,-0.59379 0.98927,-0.90862 1.16457,-2.98105 2.862244,2.14762 5.607684,4.13769 9.196114,4.3583 v 6.27713 c -7.98635,-0.62865 -9.927304,-1.35556 -10.740724,-3.36411 -1.27203,1.2028 -4.155,0.82402 -4.9281,-0.4781 -1.89504,-3.19185 -1.25982,-8.03011 0.54588,-11.81232 z"
           style="fill:#f9fbfc;fill-opacity:1;stroke:none;stroke-width:3.57794px;stroke-linecap:butt;stroke-linejoin:miter;stroke-opacity:1" />
      </g>
    </g>
  </g>
  <g
     id="layer1"
     style="display:inline;opacity:1"
     transform="translate(87.022786,-21.130861)" />
</svg>
