<?xml version="1.0" encoding="UTF-8" standalone="no"?>
<!-- Created with Inkscape (http://www.inkscape.org/) -->

<svg
   width="800"
   height="800"
   viewBox="0 0 800 799.99999"
   version="1.1"
   id="svg5"
   xmlns="http://www.w3.org/2000/svg"
   xmlns:svg="http://www.w3.org/2000/svg">
  <defs
     id="defs2" />
  <g
     id="layer3"
     style="display:none">
    <g
       id="g1543">
      <path
         id="path980-91-1-4-2"
         style="fill:#ffffff;fill-opacity:1;stroke:none;stroke-width:3.28747;stroke-linecap:butt;stroke-linejoin:miter;stroke-miterlimit:4;stroke-dasharray:none;stroke-opacity:1"
         d="M 0,24.999999 C 0,85.24088 0,145.48177 0,205.72266 c 16.55859,0 33.11718,0 49.67578,0 C 84.8094,398.81508 119.94172,591.90774 155.07617,785 c 59.95703,0 119.91406,0 179.87109,0 21.68412,-81.015 43.36852,-162.02995 65.05272,-243.04493 21.6836,81.01498 43.3672,162.02996 65.0508,243.04493 59.957,0 119.9141,0 179.8711,0 35.135,-193.09228 70.2681,-386.18493 105.4023,-579.27735 16.5586,0 33.1172,0 49.6758,0 0,-63.57422 0,-127.14843 0,-190.722651 -99.903,0 -199.806,0 -299.709,0 0,45.509115 0,91.018231 0,136.527341 -12.6603,-45.50906 -25.319,-91.018589 -37.9804,-136.527341 -41.5411,0 -83.0821,0 -124.62308,0 -12.66084,45.50679 -25.31881,91.014381 -37.97852,136.521481 0,-45.50716 0,-91.014319 0,-136.521481 -99.90299,0 -199.80599,0 -299.70898,0 0,3.333334 0,6.666667 0,10 z M 284.63086,205.72266 c -5.54297,19.92512 -11.08594,39.85025 -16.62891,59.77539 -3.89388,-19.92514 -7.78776,-39.85026 -11.68164,-59.77539 9.43685,0 18.8737,0 28.31055,0 z m 259.04682,0 c -3.8938,19.92512 -7.7877,39.85025 -11.6816,59.77539 -5.543,-19.92514 -11.0859,-39.85026 -16.6289,-59.77539 9.4368,0 18.8737,0 28.3105,0 z" />
      <path
         id="path980-91-1-2"
         style="fill:#01256f;fill-opacity:1;stroke:none;stroke-width:3.28747;stroke-linecap:butt;stroke-linejoin:miter;stroke-miterlimit:4;stroke-dasharray:none;stroke-opacity:1"
         d="m 20,44.999999 c 0,46.907551 0,93.815101 0,140.722661 15.45442,0 30.90885,0 46.36328,0 C 101.4969,378.81508 136.62922,571.90774 171.76367,765 c 49.27734,0 98.55469,0 147.83203,0 26.80129,-100.13349 53.60288,-200.26693 80.40428,-300.40039 26.8008,100.13346 53.6016,200.26692 80.4024,300.40039 49.2773,0 98.5546,0 147.832,0 35.135,-193.09228 70.2681,-386.18493 105.4023,-579.27735 15.4545,0 30.9089,0 46.3633,0 0,-50.24088 0,-100.48177 0,-150.722651 -86.5697,0 -173.1393,0 -259.709,0 0,50.240881 0,100.481771 0,150.722651 15.8907,0 31.7813,0 47.6719,0 -10.8542,55.54688 -21.7083,111.09375 -32.5625,166.64063 -29.4286,-105.78769 -58.8554,-211.5759 -88.2852,-317.363281 -31.4108,0 -62.8216,0 -94.2324,0 -29.42972,105.787381 -58.85652,211.575581 -88.28513,317.363291 -10.85416,-55.54688 -21.70833,-111.09375 -32.5625,-166.64063 15.89128,0 31.78255,0 47.67383,0 0,-50.24089 0,-100.48178 0,-150.722661 -86.56966,0 -173.13932,0 -259.70898,0 0,3.333334 0,6.666667 0,10 z" />
    </g>
  </g>
  <g
     id="layer4"
     style="display:inline">
    <g
       id="g1539"
       transform="translate(427.55858,-28.753909)">
      <path
         id="path980-91-1-4"
         style="fill:#01256f;fill-opacity:1;stroke:none;stroke-width:3.28747;stroke-linecap:butt;stroke-linejoin:miter;stroke-miterlimit:4;stroke-dasharray:none;stroke-opacity:1"
         d="m -427.55859,53.753906 c 0,60.240884 0,120.481774 0,180.722654 16.55859,0 33.11718,0 49.67578,0 35.13362,193.09242 70.26594,386.18508 105.40039,579.27735 59.95703,0 119.91406,0 179.871092,0 21.684144,-81.015 43.368506,-162.02995 65.052734,-243.04493 21.6835962,81.01498 43.367174,162.02996 65.050782,243.04493 59.957031,0 119.914062,0 179.871092,0 35.13505,-193.09228 70.26808,-386.18493 105.40234,-579.27735 16.5586,0 33.11719,0 49.67579,0 0,-63.57422 0,-127.14843 0,-190.722654 -99.903,0 -199.80599,0 -299.708988,0 0,45.509115 0,91.018234 0,136.527344 C 60.072061,134.77219 47.413412,89.262658 34.751953,43.753906 c -41.5410155,0 -83.082031,0 -124.623047,0 -12.660836,45.50679 -25.318806,91.014384 -37.978516,136.521484 0,-45.50716 0,-91.014322 0,-136.521484 -99.90299,0 -199.80599,0 -299.70898,0 0,3.333334 0,6.666667 0,10 z m 284.63086,180.722654 c -5.54297,19.92513 -11.08594,39.85026 -16.62891,59.77539 -3.89388,-19.92513 -7.78776,-39.85026 -11.68164,-59.77539 9.43685,0 18.8737,0 28.31055,0 z m 259.04687,0 c -3.89388,19.92513 -7.78776,39.85026 -11.68164,59.77539 -5.542969,-19.92513 -11.085937,-39.85026 -16.628906,-59.77539 9.436849,0 18.873696,0 28.310546,0 z" />
      <path
         id="path980-91-1"
         style="fill:#ffffff;fill-opacity:1;stroke:none;stroke-width:3.28747;stroke-linecap:butt;stroke-linejoin:miter;stroke-miterlimit:4;stroke-dasharray:none;stroke-opacity:1"
         d="m -407.55859,73.753906 c 0,46.907554 0,93.815104 0,140.722654 15.45442,0 30.90885,0 46.36328,0 35.13362,193.09242 70.26594,386.18508 105.40039,579.27735 49.27734,0 98.55469,0 147.83203,0 26.801334,-100.13349 53.60288,-200.26693 80.404296,-300.40039 26.80078048,100.13346 53.601569,200.26692 80.402344,300.40039 49.27734,0 98.55469,0 147.83203,0 35.13505,-193.09228 70.26808,-386.18493 105.40234,-579.27735 15.45443,0 30.90886,0 46.36329,0 0,-50.24088 0,-100.48177 0,-150.722654 -86.56967,0 -173.13933,0 -259.708988,0 0,50.240884 0,100.481774 0,150.722654 15.890628,0 31.781248,0 47.671878,0 -10.85417,55.54688 -21.70834,111.09375 -32.5625,166.64063 C 78.413186,275.32949 48.986391,169.54129 19.556641,63.753906 c -31.410808,0 -62.821615,0 -94.232422,0 -29.429749,105.787384 -58.856549,211.575584 -88.285159,317.363284 -10.85416,-55.54688 -21.70833,-111.09375 -32.5625,-166.64063 15.89128,0 31.78255,0 47.67383,0 0,-50.24088 0,-100.48177 0,-150.722654 -86.56966,0 -173.13932,0 -259.70898,0 0,3.333334 0,6.666667 0,10 z" />
    </g>
  </g>
  <g
     id="layer2">
    <path
       style="fill:#f65c02;fill-opacity:1;stroke:none;stroke-width:3.28747;stroke-linecap:butt;stroke-linejoin:miter;stroke-miterlimit:4;stroke-dasharray:none;stroke-opacity:1"
       d="m 495.75488,745.00033 h 115.7927 l 105.401,-579.27738 h 43.0511 V 55.000323 H 540.29048 V 165.72295 h 51.9583 L 538.80608,439.22986 431.92048,55.000323 h -63.8417 L 261.19335,439.22986 207.75063,165.72295 h 51.95821 V 55.000323 H 39.99968 V 165.72295 h 43.05123 l 105.40095,579.27738 h 115.79262 l 95.7552,-357.75703 z"
       id="path980-91-8" />
  </g>
</svg>
